<svg xmlns="http://www.w3.org/2000/svg" viewBox="0 0 500 200" width="100%" height="100%" fill="none">
  <!-- El Palmar Text -->
  <text x="30" y="110" font-family="'Plus Jakarta Sans', system-ui, -apple-system, sans-serif" font-size="64" font-weight="400" fill="#1C1A18" letter-spacing="-1">
    El Palmar
  </text>
  <text x="32" y="155" font-family="'Plus Jakarta Sans', system-ui, -apple-system, sans-serif" font-size="18" font-weight="400" fill="#2C2926" letter-spacing="12">
    MULTIESPACIO
  </text>
  
  <!-- Palm Tree Graphic (#8FC43E) -->
  <g transform="translate(360, 25)">
    <!-- Trunk -->
    <path d="M55 70 C54 95, 52 120, 50 145 C49 152, 57 153, 62 150 C68 145, 68 120, 68 95 C68 85, 67 75, 65 65 Z" fill="#8FC43E" />
    <!-- Fronds / Leaves -->
    <!-- Top left leaf -->
    <path d="M60 65 C40 45, 15 45, -5 60 C5 48, 30 35, 60 55 Z" fill="#8FC43E" />
    <path d="M60 55 C35 30, 5 35, -15 50 C2 35, 30 20, 60 45 Z" fill="#8FC43E" />
    <!-- Top Center leaves -->
    <path d="M60 45 C40 15, 20 0, 0 10 C20 0, 45 10, 60 38 Z" fill="#8FC43E" />
    <path d="M60 40 C60 10, 50 -10, 45 -20 C55 -5, 65 15, 63 35 Z" fill="#8FC43E" />
    <path d="M62 40 C75 10, 95 -5, 110 -15 C95 10, 80 25, 65 42 Z" fill="#8FC43E" />
    <!-- Top Right leaves -->
    <path d="M65 48 C95 25, 130 30, 150 48 C125 32, 95 38, 65 58 Z" fill="#8FC43E" />
    <path d="M65 58 C95 48, 125 60, 140 80 C120 62, 90 60, 65 70 Z" fill="#8FC43E" />
    <path d="M60 62 C45 60, 20 75, 10 95 C25 80, 48 72, 60 68 Z" fill="#8FC43E" />
  </g>
</svg>
